<svg xmlns="http://www.w3.org/2000/svg" width="1000" height="500" viewBox="0 0 1000 500">
  <g transform="matrix(-1 0 0 1 1000 153)">
    <g transform="translate(82)">
      <path fill="rgb(178,139,103)" fill-rule="evenodd" d="M92.14334106 40.13393307c5.79481125 10.8011217 5.1062355 38.1990633-2.38304138 40.12952518-2.9867134.76986695-9.34929657-1.1159935-15.82492256-5.01914596L78 104H54l8.26227379-38.50987244c-4.60790944-5.40875053-7.72663903-12.03725052-7.2054975-19.464674 1.50155377-21.40047406 31.29175353-16.69264244 37.08656477-5.8915205z"/>
      <path fill="rgb(25,24,71)" fill-rule="evenodd" d="M63 41c13.8492508.09921646 23.48535156-.48439407 29-2-.25143433-4.6937828-5.13092804-10-18-10-14.31801605 0-22 8.34550858-22 18 0 8.8205185 5.67813873 19.56280518 10 20 1.11876297-.2447586 2.07395172-1.5911789 3.02373505-3.44698715C63.24582672 62.70963669 62 60.76359177 62 58.5c0-3.0355339 2.24042511-5.5 5-5.5 1.00228119 0 1.93608093.32509995 2.71892548.88458633C71.53517914 50.95372391 73.8116989 48.76198578 77 49l-2-6-12-1v-1z"/>
    </g>
    <g transform="rotate(17.000006 -420.94266518 200.82770581)">
      <path fill="rgb(153,118,89)" fill-rule="evenodd" d="M107.9 0l61.67432282 60.00627513 46.23799807 50.73024767h9.9592545L148.29916083 0H107.9z"/>
      <path fill="rgb(228,228,228)" fill-rule="evenodd" d="M215.49754991 109.8005496c-.81161347-.46716616-1.84834177-.09021003-2.17035765.78914566 0 0-.83553028 2.28165234-.83553028 4.05692588 0 1.77527353.52717817 5.1811312.52717817 5.1811312h32.99200889s1.28601804-4.77022172-1.48472838-5.15057842c-2.77074643-.3803567-4.60341224-.6868633-4.60341224-.6868633l-14.88371142-7.44474485c-.53341904-.26681306-1.18030752-.01035326-1.38600078.54948186l-.82931014 2.25713252s-2.5649865 1.34276908-4.16863565 1.34276908c-1.60364916 0-3.15750052-.89439962-3.15750052-.89439962z"/>
      <path fill="rgb(219,39,33)" fill-rule="evenodd" d="M202.97073708 102.61308496l19.20624685-3.3812636S209.5548136 77.27195291 191.2364603 50.89976121 151.89 0 151.89 0H97.64458067s23.37873321 31.0262492 49.5691845 56.38266017c26.19045128 25.35641098 55.75697191 46.2304248 55.75697191 46.2304248z"/>
      <path fill="rgb(178,139,103)" fill-rule="evenodd" d="M92.48425267 31.68116917c6.96574813 20.73660106 12.72320655 49.3493776 12.30973637 50.6311103-.27564679.85448846-18.58393704 19.1851208-54.92487075 54.99189702l4.64157144 3.03422456c46.77232014-37.60565378 70.7183285-58.45695886 71.83802508-62.55391526 1.67954486-6.1454346 3.31075589-46.84508867-.22776073-68.79156858L92.48425267 31.68116917z"/>
      <path fill="rgb(255,65,51)" fill-rule="evenodd" d="M60.40192414 125.41335773l7.48769984 5.10427391c39.51745692-21.08087706 62.16049093-36.61082106 67.92910203-46.589832 5.7686111-9.97901094 4.87299378-33.78451834-2.68685196-71.4165222L88.79383188 39.1522726c8.23961826 29.58431035 12.2655856 45.1577256 12.077902 46.72024572-.1876836 1.56252013-13.67762017 14.74279994-40.46980974 39.54083942z"/>
      <path fill="rgb(228,228,228)" fill-rule="evenodd" d="M52.40441761 133.8168169c.3441638-1.011545-.28373567-2.09419345-1.33264731-2.29780182 0 0-2.55228934-.49543494-4.45435722-.16005003-1.90206788.3353849-5.44686044 1.57044824-5.44686044 1.57044824l6.52856534 37.02544204s5.36540394.54204907 5.22464238-2.63929158c-.14076156-3.18134065-.17501735-5.29596401-.17501735-5.29596401l5.07990175-18.2849734c.15607172-.56177608-.19961088-1.1373998-.77185575-1.2491431l-2.7222588-.53158049s-1.94624072-2.62489243-2.263576-4.42459548c-.31733528-1.79970305.3334634-3.71249036.3334634-3.71249036z"/>
    </g>
    <g transform="translate(33.99 82.005)">
      <path fill="rgb(178,139,103)" fill-rule="evenodd" d="M178.94583511 57.36671066l36.49580384 7.59067917c8.76261902-1.15526962 16.35317993-1.35735702 22.77168274-.60626983 1.63731384.52027893 3.90452575 1.96505737-1.54489136 3.60188293-5.44943237 1.63682556-11.12753296 3.56993103-11.31419373 5.39531708-.08174133.79930114.61598206 1.37380981 1.36361695 1.98940277.9597168.79022217 2.00163269 1.64813232 1.58241272 3.13613891q-.03141785.11149598-.09165955.20426941-1.3701477 2.10980988-17.65367126-5.46539306l-33.28660584.558815 1.6775055-16.40484238zM46.14860535 147.9527092c6.37193298-3.56285095 15.62129211-9.70074463 16.94464874-11.63267517 2.70694733-3.95181275 13.54514313-41.6688881 13.54514313-41.6688881l17.47824096-.84506225s-18.8760376 41.03979874-20.33079528 43.56633377c-1.88977814 3.28201294.6477356 7.77912903 2.36840057 10.82858276.2661972.47177124.51284027.90887452.72051239 1.30148316-2.74079895 1.05986023-3.95336914.01123047-5.23173523-1.09429932-1.4438858-1.24867248-2.9717102-2.56993103-6.88028717-1.00765991-1.51008606.60357666-2.947361 1.2993164-4.35156632 1.97903442-4.85036468 2.34788514-9.30618667 4.504776-15.00543594 2.01335144-.90354538-.39498901-1.81473541-2.01011657.74287415-3.4402008z"/>
      <path fill="rgb(4,176,92)" fill-rule="evenodd" d="M114.16561744 21.79725428l5.9715903-3.11334008c29.93404045 8.80869707 52.03027272 38.08398655 87.37188286 45.3469607l-4.1697696 9.60415548c-51.83218358 12.21390525-79.3953005-23.28176947-89.17370356-51.8377761z"/>
      <path fill="rgb(221,227,233)" fill-rule="evenodd" d="M84.8896 95.2952h71.57603739c3.27065988 0 2.6543664-4.22004168 2.1815727-6.34949784-5.45661058-24.5764977-26.75714887-51.06877295-26.75714887-86.05279878L111.2441626 0C94.16735213 24.54136184 88.261895 54.75674724 84.8896 95.2952z"/>
      <path fill="rgb(4,176,92)" fill-rule="evenodd" d="M99.20124054 21.68590379c-3.30491638-.22581482-6.28798676-1.54801369-8.1736679-4.80099678C84.38887786 5.43248963 86.78642272-.87291527 93.88108825-2.9455371c3.90126037-1.13970804 7.5703888-.36178923 11.96251678.56941986 3.59403229.76199675 7.67217255 1.62663555 12.75778961 1.62720084l.00498963 2.4e-7c.49282837 0 .94135284.03156877 1.34850311.09195352l6.02687836.32879638s24.47080993 79.28951407 13.49780273 105.80145407H89.70819092c-2.82998657 6.49815369-5.60510254 12.16825104-8.22003174 16.52345276H67.98352814c-1.45292664-44.91340637 16.3328247-79.4727478 31.2177124-100.3108368z"/>
      <path fill="rgb(0,0,0)" fill-opacity=".1" fill-rule="evenodd" d="M91.39686584 104.99557495c4.51171875-10.83595276 9.13822175-23.48366547 13.59046174-36.545578C106.6446762 82.83446503 109.40472412 97.2819519 114 104.99557495H91.39686584z"/>
    </g>
  </g>
  <g transform="translate(354 126)">
    <g transform="translate(82)">
      <path fill="rgb(134,88,46)" fill-rule="evenodd" d="M78.81819184 72.98637556c7.70907783 4.43783188 15.28358269 6.58202744 18.83919334 5.70670319 8.91580963-2.19491196 9.7355423-33.34599495 2.83695221-45.62672234-6.89858246-12.28072738-42.36310625-17.63346767-44.15067053 6.6985798-.62040662 8.44487762 3.0923667 15.9813919 8.57797385 22.13106536l-9.8360405 43.78519821h28.5714283l-4.83883667-32.69482422z"/>
      <path fill="rgb(64,24,71)" fill-rule="evenodd" d="M87.81985376 22.96635014c-3.35980093-.90612932-8.23705138-1.2134268-10.28876566-1.00554265 1.16710857-2.47320776 1.63023444-5.2286588 1.2526751-7.91157682-.36697138-2.60695192-1.68403704-4.82669589-2.90212475-7.15271934-.5614764-1.07214459-1.19777449-2.13844563-2.14645705-2.95851426-.96640762-.83548097-2.1897501-1.38696562-3.4725421-1.65007128-1.31275205-.26931442-2.6854242-.24688981-4.00021541-.0024835-.58163277.1081056-1.1035023.34330832-1.67391964.47405766-.58414251.13396329-.8675081-.18940393-1.29149767-.51437813-1.02177881-.78303515-2.51970278-1.16958572-3.8123769-1.30793167-1.45031729-.15514614-2.95522148.03834827-4.33840317.46003316-1.34631985.4105091-2.63969982 1.0771116-3.61308766 2.04823589-.43340112.4322763-.82680321.92430287-1.0824832 1.46753351-.10486017.22293128-.12219308.35499542-.3737163.43665897-.23262174.07560088-.50469349.0777922-.74476602.14974086-2.3213547.69538197-4.30609024 2.2817586-5.38676956 4.31859957-.6304943 1.18828507-.92915363 3.28043508-.84735172 5.6253915.0818019 2.34495641 2.47578228 8.46361685 4.7148645 10.69541313 1.99861755 1.9920648 4.93634927 3.3066435 7.77149527 3.88208669-1.8818361 1.90243942-3.1345112 4.27973999-4.06084137 6.69750711-1.00617134 2.62630867-1.62890114 5.35517157-1.85885627 8.13560377-.218426 2.64172102-.2386608 5.43537424.46155728 8.02070504.65504273 2.41769408 2.05587104 4.40106661 4.3944018 5.65932814 1.07118936.57639276 2.22371005 1.00939951 3.38289725 1.40515366 1.1424033.38998364 2.28825748.76915673 3.48493395.98799753 2.26480708.41401522 4.87439.3429431 6.61897458-1.2514684.62876886-.5747858 1.32028127-1.29704807 1.7790151-1.99922316.16493712-.25251422.26438565-.41766744.06399842-.66448421-.24007253-.29561038-.6283767-.52212083-.93676129-.75337916-1.75862344-1.3185231-2.84722414-3.07874521-3.12164876-5.17058856-.27842453-2.12244893.36618708-4.8619763 2.6993062-5.78825137 2.88000765-1.14343585 6.0516944.16902456 8.61147462 1.39244395 1.08789483-3.39597672 3.32164385-6.45368516 6.82375386-8.01142842 3.874493-1.72333474 8.32042295-1.92501011 12.30205058-3.40364637 1.03754313-.3853088 2.09430147-.82269822 2.85820426-1.60777861.31920784-.3281151.69370844-.75374438.82115629-1.18770071.16744686-.5700379-.2482292-1.04796692-.56931934-1.49236858-1.7025464-2.35633685-8.15905429-7.11682561-11.51885522-8.02295494z"/>
    </g>
    <g transform="translate(12 174.234)">
      <path fill="rgb(134,88,46)" fill-opacity=".92" fill-rule="evenodd" d="M120.32 0l35.37298741 85.73909642 17.13555746 72.91557875H186.264005L168.15751563 0H120.32z"/>
      <path fill="rgb(134,88,46)" fill-rule="evenodd" d="M107.66546368 0c2.402619 47.07537225-.42493893 71.35770176-.9626738 75.634704-.53773488 4.27700224-7.90108538 32.00931381-25.33292377 84.45576009l14.3164867-3.64547475c27.54939518-48.10115294 36.93724683-73.10017158 40.09695392-79.4164276C138.9430138 70.71230572 147.33503893 45.03611847 160.95938209 0h-53.29391841z"/>
      <path fill="rgb(228,228,228)" fill-rule="evenodd" d="M83.31051865 155.91822434c-1.01723668-.51318922-2.2562425-.05543643-2.695481.99585 0 0-.94633929 2.26499642-.94633929 4.15013975S80.30740752 166.566 80.30740752 166.566h39.97187184s1.55809089-5.06544568-1.79884082-5.46934225c-3.35693172-.40389657-5.5773204-.72937253-5.5773204-.72937253l-18.31361805-8.0287161c-.51162134-.22429551-1.10778467.01405389-1.32375528.5292447l-1.07915629 2.57429195s-3.10764076 1.42587163-5.0505615 1.42587163c-1.94292076 0-3.82550837-.94975306-3.82550837-.94975306z"/>
      <path fill="rgb(228,228,228)" fill-rule="evenodd" d="M174.61015333 155.8449317c-1.01494747-.48067888-2.22661754-.03167972-2.6832501.99431115 0 0-1.04137536 2.3398279-1.04137536 4.22497124 0 1.88514333.68037316 5.50178591.68037316 5.50178591h42.57929988s1.6597276-5.06544568-1.91618204-5.46934225c-3.57590964-.40389657-5.94113776-.72937253-5.94113776-.72937253l-19.60197676-8.06729222c-.50008271-.20581156-1.07318154.02321999-1.29368045.51700268l-1.17224421 2.62511009s-3.31035706 1.42587163-5.38001758 1.42587163c-2.06966053 0-4.22980878-1.0230457-4.22980878-1.0230457z"/>
      <path fill="rgb(198,210,212)" fill-rule="evenodd" d="M115.62 0l15.04 43.68316715h45.9380988L169.74854118 0H115.62z"/>
      <path fill="rgb(255,255,255)" fill-rule="evenodd" d="M107.16 0c-7.42303078 16.49687723-2.82 43.68316715-2.82 43.68316715h46.8780988L164.10854118 0H107.16z"/>
    </g>
    <g transform="translate(33.99 82.005)">
      <path fill="rgb(132,91,56)" fill-rule="evenodd" d="M180.1934433 57.82099724l35.57839966-17.94657326c6.03762817-6.7251892 11.9394226-11.90279198 17.70547485-15.53281403 1.74731445-.65930175 4.77618408-.98448944 1.7939148 3.94304467-2.9822693 4.9275341-5.8982544 10.24653053-4.51217652 11.85096931.60696411.70256424 1.64834595.70787049 2.76419068.7135582 1.43237304.00730133 2.98745727.01522827 3.90371704 1.49952698q.10092163.1634941.11798095.33530807.25827027 2.60316849-18.73809814 7.11664963l-26.15640259 22.43951988-12.45700073-14.41918945zm-145.18436432 73.8686676c7.35775375-5.04510498 17.96072006-13.87498474 19.3933487-16.78141785 2.9304695-5.9451294 28.57186126-82.45856285 28.57186126-82.45856285l21.8973999.08218003s-36.01663208 81.05071449-37.55926513 84.87374305c-2.00392151 4.96622467 1.40002441 12.18173218 3.70818328 17.07444764.35707856.75692749.68793488 1.45825195.96848298 2.08705139-3.20269013 1.43310547-4.7411499-.29911805-6.36309052-2.1253357-1.83195877-2.06266784-3.770401-4.245224-8.33358002-2.12228393-1.7629776.82020569-3.43124008 1.78991699-5.0611229 2.73731994-5.6299858 3.27253724-10.80198287 6.27885437-17.83776092 1.93756104-1.11542892-.68824768-2.33776092-3.27964783.61554337-5.30470276z"/>
      <path fill="rgb(249,127,14)" fill-rule="evenodd" d="M118.29064584 16.3080689l11.77408499-2.56218737c10.60409554 26.85874003 30.98998431 39.80330552 63.99663105 23.69902582l14.60071737 34.31049883c-31.1371714 14.0262612-63.46790735 8.40375548-79.89143697-27.7069234-4.25153299-9.34791399-8.29754494-19.18742045-10.47999644-27.74041387z"/>
      <path fill="rgb(249,97,14)" fill-rule="evenodd" d="M109.83776093.06997119Q109.88536835.03495576 109.93296814 0h1.52426147l.61264039.5806796 20.16412353 4.6135748c0 38.90429067 12.40498352 63.72587347 18.76763916 92.32955694h-61.1160736c-.17723084 3.12799072-.3156662 6.28672028-.41928101 9.47618866H42.40163422Q58.27990722 38.36351776 109.16568756.56670302c.12160492-.18922418.2436905-.37812728.36625671-.56670302l.30581666.06997119z"/>
      <path fill="rgb(0,0,0)" fill-opacity=".1" fill-rule="evenodd" d="M96.84365082 97.00186348c2.01204681-23.10946655 5.60490417-44.91008568 11.54432678-65.4018631-1.30180359 21.9141636-1.66313171 49.09978485 2.71446991 65.4018631h-14.2587967z"/>
    </g>
  </g>
  <g transform="translate(166 64)">
    <g transform="translate(82)">
      <path fill="rgb(178,139,103)" fill-rule="evenodd" d="M92.14334106 40.13393307c5.79481125 10.8011217 5.1062355 38.1990633-2.38304138 40.12952518-2.9867134.76986695-9.34929657-1.1159935-15.82492256-5.01914596L78 104H54l8.26227379-38.50987244c-4.60790944-5.40875053-7.72663903-12.03725052-7.2054975-19.464674 1.50155377-21.40047406 31.29175353-16.69264244 37.08656477-5.8915205z"/>
      <path fill="rgb(85,40,40)" fill-rule="evenodd" d="M44.59338187 38.90170106c-.77517789-.76818375-1.19801892-1.8646367-1.5637939-2.90576449-.37985741-1.0815271-.7489459-2.17419882-1.00114104-3.29990643-.50393005-2.2492261-.50871623-4.8358759 1.09585228-6.58239937 1.28683946-1.40054226 3.21769692-2.02872154 4.99972245-2.16524331 1.18725-.09104769 2.40662266.07522628 3.54472222.44936759 1.12917148.37115614 2.10251583 1.11088126 3.19717155 1.57000041.04178708-2.42385854.45698863-4.96005898 1.68667-7.02967734 1.18329219-1.9913074 3.06987744-3.10875605 5.21841428-3.40438738 2.20523473-.30339278 4.38285684.2126436 6.3570661 1.2802399.49426564.26737173.98392918.54748019 1.4525151.86450524.39237512.26548112.80030535.58519283 1.26069952.69315648.5132263.12050136.76763044-.17592602 1.10119072-.55036585.39108653-.439019.83169168-.82569802 1.29797654-1.16849504 2.06174122-1.51547131 4.76685614-2.1385758 7.15543857-1.23018856 1.10054642.41852083 2.17071897 1.12928981 2.91736382 2.10872409.66555584.87306272 1.14030857 2.2579826 2.05888791 2.86626073.38979795.25821721.66509563-.08388327 1.02000966-.33672717.53310737-.37991264 1.04154748-.79913001 1.5810978-1.16869406.75787397-.51922057 1.57842857-.90759119 2.45715372-1.11088127 1.28637925-.29762144 3.0640788-.22786797 3.4318787 1.45696198.13806303.63285604.03221471 1.30969359-.01242567 1.9473259-.06120794.87555036-.1250851 1.75080221-.2011118 2.625059-.05771035.6638023-.13069968 1.30491731-.25596886 1.95677894-.0668225.34747379-.27594197.99525568-.12692595 1.343227.186201.43493927 1.04559734.18766768 1.41275295.20279254.72519906.02995121 1.45343551.15711945 2.12396162.4669801.51966924.24020668 1.06603066.5934518 1.28536679 1.18909272.13484156.36588234.09931334.74171524.03562026 1.11814518-.07639488.45175573.010953.69136537.06801905 1.14720083.97398864-.47961731 4.34916946-1.5452235 4.77385134.2003049.14137654.5812126-.18058644 1.23795001-.42624659 1.72811493-.43084869.85972896-.99571056 1.6455252-1.57318218 2.39490239-1.2045539 1.56333353-2.6426184 2.91173482-4.18984473 4.064906 1.81276756.8058964 2.28595557 3.18298727.71645507 4.59925142-.69298436.62529362-1.62472571.76450204-2.49884876.72450077-.31993806-.01462734-.78116061-.13761634-1.03289553-.08189317-.13548585.0299512-.28054408.14478075-.46821775.15761698-1.23363918.0844803-2.62623492-.21274312-3.83216945-.4864832-2.14881296-.48777679-4.18312566-1.50581926-5.84439205-3.05631657-.42615455-.39772415-.77821527-.62668669-1.35182113-.62081585-.50264146.00507479-.9958026.14289014-1.49798385.15562686-1.32871858.03393143-2.5267375-.61564156-3.76056076-1.04799368-.0755665 1.66681942-.55022718 3.50259947-1.23207446 5.00214987-.55602583 1.22282514-1.7171359 1.40054226-2.85808876 1.50780937-3.64854561.34329455-7.30997711-.03980226-10.96312483-.03472748 3.5363464.79932903 7.19059862 1.12879229 10.69555868 2.06941936 1.58431927.4250882.37451898 1.49288352-.30291028 2.23310618-1.11545722 1.21894442-1.94484785 2.72924143-2.52011047 4.32033704-1.72992974-2.25499742-4.78765764-3.74081604-7.49663833-3.04805759-2.99320644.76529809-5.10087663 4.81308911-3.18686285 7.72313234 1.11122329 1.6893077 3.11792338 2.34146785 4.78765764 3.06726218-1.30257865 1.35427213-1.61763848 3.35443554-2.4016524 5.03926549-.38666851.83087232-.9294403 1.77030532-1.79417506 2.05986681-.31993806.1071676-.69510133.11632212-.94748054.37712648-.31266674.32289589-.38712873.68390245-.786407.96142375-1.59324735 1.10769708-4.08197149 1.02232122-5.49417218-.4231976-1.27708301-1.30730545-.94481132-3.37602827.12177159-4.70144375-1.69780708-.7076843-4.79097115-1.61786264-4.11621111-4.26292228-3.67891949-.2442864-12.61122923-6.2108452-7.6735431-10.5707855-2.70980907-1.53149173-5.19936158-5.27429788-3.45875497-8.57360728 1.34031587-2.54057868 4.45741088-3.67623686 7.0148904-3.81096753"/>
    </g>
    <g transform="translate(0 187)">
      <path fill="rgb(153,118,89)" fill-rule="evenodd" d="M134 0l49.08163948 124.22690916 32.91925872 105.02338058H229L178.67368775 0H134z"/>
      <path fill="rgb(178,139,103)" fill-rule="evenodd" d="M124.11662798 0c-.52264934 43.65418883-8.14479524 102.42746848-9.36255726 105.14864846-1.21776203 2.72117999-84.07821614 69.20909005-84.07821614 69.20909005l8.95321673 9.58099789s97.76765962-57.00504128 102.29186585-64.60810882C146.4451434 111.72756003 161.17440013 41.76313698 173 0h-48.88337202z"/>
      <path fill="rgb(25,24,71)" fill-rule="evenodd" d="M16.57409232 178.49138578l16.72972489-12.73249014 13.49853478 16.08693752c1.55746368 18.19122037 12.04594852 40.8031264 12.04594852 40.8031264l-3.06417858 2.57114949-24.42592008-29.10969646-6.82414653-11.24415511-1.5320893 1.28557474-6.4278737-7.66044644z"/>
      <path fill="rgb(25,24,71)" fill-rule="evenodd" d="M208 239l1-21h21c14.93640491 10.5 39 17 39 17v4h-38l-13-2v2h-10z"/>
      <path fill="rgb(105,161,172)" fill-rule="evenodd" d="M167 218.43288902l61.80446449-6.70756196L183 0h-55.3559269L167 218.43288902z"/>
      <path fill="rgb(137,197,204)" fill-rule="evenodd" d="M43.45995809 158.90047921L84 206.88596059s64.04992913-69.95399934 74.6825518-91.28999422C169.31517447 94.25997149 177.79892514 0 177.79892514 0h-62.32077926s-4.63425522 82.92581129-6.2476211 86.78475508c-1.61336588 3.85894379-65.7705667 72.11572413-65.7705667 72.11572413z"/>
    </g>
    <g transform="translate(22 82)">
      <path fill="rgb(158,28,153)" fill-rule="evenodd" d="M181.72921753 118.2636795c-18.99157715 39.55251313-98.93791199 12.84616852-98.93791199 12.84616852 0-14.20238495 11.67331696-28.48020172 12.0453186-45.7492981.35411835-16.4394226 3.42799378-66.24801826 16.2566147-83.07361793.23345946-.7601353.4704895-1.52244079.7109909-2.28693199l.8879547.41778806c.13856507-.1429733.27817536-.28225927.41882325-.41778806l27.99047852 4.32798243c0 15.74078512 12.52424621 30.4684577 20.44718933 43.14005422 2.0309143 3.2481575 4.32286071 6.55438233 6.67150879 9.94240952 11.89447021 17.1583252 25.24343872 36.41480255 13.5090332 60.85323333z"/>
      <path fill="rgb(178,139,103)" fill-rule="evenodd" d="M179.8487854 64.10464478c-2.28561401-3.22423172-4.36199951-4.82232285-8.22755432-4.82232285-2.19729614 0-1.75022888.5968895-.95510864 1.65850067.60369873.8060112 1.40802002 1.87989807 1.40802002 3.16382218 0 2.97499847-10.49072266 4.64855957-10.49072266 8.60036468 0 3.95181274 15.37458801 9.83002472 19.0441742 9.83002472 3.66960143 0 1.50679016-15.2061615-.7788086-18.4303894zM149.50598145 91.4392395q-.83517457 4.85754395-3.64297486 19.34798432c8.74649048 6.26483917 13.60969544 9.95874786 14.58958435 11.08172607.3273468.37515259.71607971.84012604 1.15327454 1.36306763 2.89015198 3.45701217 7.89822388 9.44735336 11.29234314 8.7679863 8.18301391-1.63789368 12.46400451-12.9021492 10.94830322-17.40215684-.39564514-.4688034-1.22007751-.01589965-2.37968445.6211319-1.52818298.83950043-3.638443 1.99877167-6.11657715 1.7897644-2.3175354-.19546508-10.93229675-8.71863555-25.8442688-25.56950378z"/>
      <path fill="rgb(0,0,0)" fill-opacity=".2" fill-rule="evenodd" d="M106.56497955 18.71861458c-9.81735992 40.93197632-5.81788635 75.45418548 31.49326325 106.76831817-.43855286 1.57319642-.70144654 2.51306916-.70144654 2.51306916-43.79597473-30.60948181-43.81698608-67.70355988-30.7918167-109.28138733z"/>
    </g>
  </g>
  <g transform="translate(4 47)">
    <g transform="translate(99.99 -38.34)">
      <path fill="rgb(91,64,40)" fill-rule="evenodd" d="M99.56516356 40.13393307c7.17453003 10.8011217 6.32201004 38.1990633-2.950428 40.12952518-3.69783402.76986695-11.5753212-1.11599731-19.5927639-5.01914978L82.05436033 104h-29.7142868l10.22948265-38.50987244c-5.7050314-5.40875053-9.56631572-12.03725052-8.92109287-19.464674 1.85906684-21.40047406 38.74217403-16.69264244 45.91670024-5.8915205z"/>
      <path fill="rgb(25,24,71)" fill-rule="evenodd" d="M77.40756777 49.64944889c2.7795119-3.30533901 5.4124794-5.79963963 8.73842053-7.1539567 13.20083288.87797188 14.85786292-1.14696003 15.22985973-8.24507951-2.06254462-1.46952877-9.47143092-4.15027201-17.86897529-5.23522115-4.24369023-1.31991487-9.34964376-1.38108897-14.35352245.18740764-6.1392341 1.21117601-11.44216789 4.2346069-14.03140897 10.2796107-8.8583413 12.1523983-3.32166585 25.5761401 4.83012112 30.48982201 2.35555672-2.2348239 4.4230905-4.41191925 6.27569496-6.50262583-1.33275947-1.28618603-2.11082003-3.02455187-2.01266213-4.89751557.19335626-3.68945583 3.71349798-6.50407824 7.86245962-6.2866403.30500897.01598485.6049271.04791087.89878116.0948141-.0550301 4.6225995-.10469525 20.26913264 1.6293877 25.7958064 2.0444037 6.51568277 15.84616397 8.8125321 20.68854808 9.06631078 4.18247736.21919443 4.22447719-3.31013955 4.2545878-5.83955702.00433043-.364271.00842247-.70781225.02459619-1.01642499.03379246-.6447984-.9093977-.69255579-1.97508148-.74651124-1.38379601-.0700693-2.97412253-.1505957-2.90013655-1.56233172.13096412-2.49894332 6.51873564-3.7220955 7.89817075-5.26609975 1.67197478-1.87145071 2.33876564-4.47879872-.02917003-4.60289701-3.24834214-.17023846-9.74844479 3.67986158-17.15163038 3.29187692-7.35709864-.38556934-8.0003211-21.58684226-8.00804036-21.85078776z"/>
    </g>
    <g transform="translate(-36 157.194)">
      <path fill="rgb(77,74,221)" fill-rule="evenodd" d="M174.08 0l49.30674866 149.89672152 35.97471327 110.48196467H285.6L247.37172474 0H174.08z"/>
      <path fill="rgb(83,115,210)" fill-rule="evenodd" d="M160.89390528 0c-1.14046031 77.25850855-5.0294088 119.39739853-6.22684545 126.41666993-1.19743666 7.0192714-19.30330614 51.67327682-54.31760844 133.96201626h27.18134821c44.57588566-78.94198511 69.4592855-123.59599053 74.6501995-133.96201626C207.37191311 116.05064421 223.39158008 73.91175423 247.52 0h-86.62609472z"/>
      <path fill="rgb(228,228,228)" fill-rule="evenodd" d="M104.4391215 262.7724249c-.99182744-.44079722-2.15420884-.0100774-2.61931489.97058575 0 0-2.53980661 5.35511152-2.53980661 8.54201623 0 3.18690471 1.22568995 9.30097312 1.22568995 9.30097312h76.7064646s2.98999364-8.56332377-3.45199548-9.2461259c-6.44198912-.68280213-10.70293957-1.23303132-10.70293957-1.23303132l-36.06543155-13.92869098c-.48787033-.18841852-1.03852374.03090915-1.26324771.5031571l-2.42657043 5.09933538s-5.96359703 2.41048888-9.69208346 2.41048888c-3.72848643 0-9.17076485-2.41870826-9.17076485-2.41870826z"/>
      <path fill="rgb(228,228,228)" fill-rule="evenodd" d="M262.1991215 262.7724249c-.99182744-.44079722-2.15420884-.0100774-2.61931489.97058575 0 0-2.53980661 5.35511152-2.53980661 8.54201623 0 3.18690471 1.22568995 9.30097312 1.22568995 9.30097312h76.7064646s2.98999364-8.56332377-3.45199548-9.2461259c-6.44198912-.68280213-10.70293957-1.23303132-10.70293957-1.23303132l-36.06543155-13.92869098c-.48787033-.18841852-1.03852374.03090915-1.26324771.5031571l-2.42657043 5.09933538s-5.96359703 2.41048888-9.69208346 2.41048888c-3.72848643 0-9.17076485-2.41870826-9.17076485-2.41870826z"/>
    </g>
    <g transform="translate(41 47)">
      <path fill="rgb(91,64,40)" fill-rule="evenodd" d="M224.45217896.33838463l37.90377807-11.37841797q10.60647583-8.25667 20.008667-12.07377815c1.82299804-.34313011 4.84106445-.14385224 1.06961059 4.13438987-3.77142334 4.27823735-7.54599 8.94791699-6.46917725 10.74180127 1.07681275 1.79388141 5.0001526.44158172 6.13565064 3.28320026.75701904 1.89440918-5.74307251 3.25123215-19.50024414 4.07045555l-29.47094727 17.3440876L224.45217896.33838463zm-41.96046448 65.92875671l37.08300781 28.47411347c10.13287354 2.73542785 18.58070374 6.2049408 25.3434906 10.40851593 1.58947754 1.52497863 3.49139404 4.63426208-3.18927002 4.197937-6.68069458-.43632506-13.735672-.57749938-14.69490051 1.84437562-.42002869 1.06048584.11166382 2.19622803.68139648 3.413208.73135376 1.56219483 1.5253296 3.25820924.44909668 5.1006012-1.27641296 2.1850586-7.07060241-3.15083313-17.38259887-16.00769043L173.871109 88.0325985l8.62060547-21.76545716z"/>
      <path fill="rgb(240,198,48)" fill-rule="evenodd" d="M138.56072852 6.08677722c17.37071801 32.389551 42.48943587 57.21845568 78.9049352 83.02909531l-13.78837608 15.5469118c-40.65937664-15.10998425-62.11835306-24.2265257-72.65635056-54.82803339-2.64482372-7.68035799-4.49330856-32.16389817-6.07908477-45.04593529l13.6188762 1.29796157z"/>
      <path fill="rgb(242,242,242)" fill-rule="evenodd" d="M92.5696 151.3952h94.9248s-32.25308484-96.8038475-32.9522005-132.88028592c-.02376107-1.22614113-2.32484036-3.38677498-3.3428882-3.10382075C140.032 18.51491408 127.29950246 13.09 127.29950246 13.09 104.79577243 48.70772217 97.01359241 92.5603498 92.5696 151.3952z"/>
      <path fill="rgb(240,198,48)" fill-rule="evenodd" d="M148.96662903 56.70529938c17.59277344 64.2142105 16.92927551 116.90608978-21.60931397 116.90608978H67.9855652c-9.4296074-54.27246094 15.35324096-129.52261353 38.32873535-167.47817612.8773651-1.44940853 2.74536133-4.18182659 7.14526367-4.18182659h17.25167847c.0092163.02375508.01841735.04751015.02763366.07126522 3.66629029.05289269 7.6587677.19844246 11.948349.35482407C167.11001587 3.26783562 201.1636734 4.50930024 239.48178864-9l4.5178833 24.79087257c-32.62472535 23.04225731-65.63674164 41.18630791-95.03304291 40.9144268z"/>
    </g>
  </g>
  <ellipse cx="49.45" cy="24.938" fill="rgb(255,255,255)" rx="32.824" ry="31.332" transform="translate(601 299)"/>
</svg>
